<?xml version="1.0" encoding="utf-8"?>
<!-- Generator: Adobe Illustrator 23.0.1, SVG Export Plug-In . SVG Version: 6.00 Build 0)  -->
<svg version="1.1" id="Layer_1" xmlns="http://www.w3.org/2000/svg" xmlns:xlink="http://www.w3.org/1999/xlink" x="0px" y="0px"
	 viewBox="0 0 463.7 135.4" style="enable-background:new 0 0 463.7 135.4;" xml:space="preserve">
<style type="text/css">
	.st0{fill:url(#SVGID_1_);}
	.st1{fill:url(#SVGID_2_);}
	.st2{fill:#FFFFFF;}
	.st3{fill:url(#SVGID_3_);}
	.st4{fill:url(#SVGID_4_);}
	.st5{fill:url(#SVGID_5_);}
	.st6{fill:url(#SVGID_6_);}
	.st7{fill:url(#SVGID_7_);}
	.st8{fill:url(#SVGID_8_);}
	.st9{fill:url(#SVGID_9_);}
	.st10{fill:url(#SVGID_10_);}
	.st11{fill:url(#SVGID_11_);}
	.st12{fill:url(#SVGID_12_);}
	.st13{fill:#252622;}
	.st14{fill:url(#SVGID_13_);}
	.st15{fill:url(#SVGID_14_);}
	.st16{fill:url(#SVGID_15_);}
	.st17{fill:url(#SVGID_16_);}
	.st18{fill:url(#SVGID_17_);}
	.st19{fill:url(#SVGID_18_);}
	.st20{fill:url(#SVGID_19_);}
	.st21{fill:url(#SVGID_20_);}
</style>
<g>
	<radialGradient id="SVGID_1_" cx="415.8213" cy="-10.2623" r="152.8475" gradientUnits="userSpaceOnUse">
		<stop  offset="0" style="stop-color:#4082F6"/>
		<stop  offset="1" style="stop-color:#6746F5"/>
	</radialGradient>
	<path class="st0" d="M463.7,111.1v21.7c-16.5,1.9-28.1,0.3-34.8-4.6c-6.8-5-10.1-13.8-10.1-26.6V0.1h6.4c9.7,0,17.5,7.8,17.5,17.5
		v83.9c0,3.2,0.8,5.6,2.4,7.1c1.6,1.5,4,2.3,7.1,2.5C455.2,111.4,459.1,111.3,463.7,111.1z"/>
	<radialGradient id="SVGID_2_" cx="429.0797" cy="60.8966" r="60.1957" gradientUnits="userSpaceOnUse">
		<stop  offset="0" style="stop-color:#000072"/>
		<stop  offset="1" style="stop-color:#6746F5;stop-opacity:0"/>
	</radialGradient>
	<path class="st1" d="M418.7,64.5v37.1c0,12.8,3.4,21.6,10.1,26.6c6.7,5,18.4,6.5,34.8,4.6v-21.7c-4.6,0.3-8.4,0.3-11.5,0.1
		c-3.1-0.2-5.4-1-7.1-2.5c-1.6-1.5-2.4-3.8-2.4-7.1V64.5H418.7z"/>
	<path class="st2" d="M260.4,50.9c-7.2-9-17.3-13.6-30.3-13.6c-12.4,0-23,4.7-31.9,14.2C189.4,61,185,72.6,185,86.4
		c0,13.8,4.4,25.4,13.3,34.8c8.9,9.5,19.5,14.2,31.9,14.2c13,0,23.1-4.5,30.3-13.6v11h24V39.9h-24V50.9z M253.1,105.2
		c-4.9,4.9-11.1,7.3-18.5,7.3c-7.4,0-13.6-2.4-18.4-7.3c-4.8-4.9-7.2-11.2-7.2-18.9c0-7.7,2.4-14,7.2-18.9c4.8-4.9,11-7.3,18.4-7.3
		c7.4,0,13.6,2.4,18.5,7.3c4.9,4.9,7.3,11.2,7.3,18.9C260.4,94,258,100.3,253.1,105.2z"/>
	<path class="st2" d="M327.3,39v5.5H347v3.3c0,5.4-2.2,10.4-5.8,13.9c-3.6,3.6-8.5,5.8-13.9,5.8v65.3h-24V39
		c0-13.1,3.7-23.1,11-29.9c7.3-6.8,18.2-9.8,32.7-8.9v23C333.9,22.2,327.3,27.5,327.3,39z"/>
	<path class="st2" d="M463.7,44.4v6.8c0,9-7.3,16.3-16.3,16.3h-60.8v34.1c0,3.2,0.8,5.6,2.4,7.1c1.6,1.5,4,2.3,7.1,2.5
		c3.1,0.2,6.9,0.2,11.5-0.1v21.7c-16.5,1.9-28.1,0.3-34.9-4.6c-6.8-5-10.1-13.8-10.1-26.6V0.1h6.4c9.7,0,17.5,7.8,17.5,17.5v26.8
		H463.7z"/>
	<path class="st2" d="M185.4,42.8c1.9-2,3.8-3.8,5.8-5.5h-15.6c-32,0-48.4,15.3-49.1,46.2v49.3h24.4V83.2c0-13.9,6.7-20.9,20-20.9
		h2.2C175.9,55.1,180,48.6,185.4,42.8z"/>
	<path class="st2" d="M96.1,96.2c-7.9,7.9-18.5,12.3-29.8,12.3s-21.8-4.4-29.8-12.3c-4.7-4.7-12.4-4.7-17.2,0
		c-4.7,4.7-4.7,12.4,0,17.2c12.5,12.5,29.2,19.4,46.9,19.4s34.4-6.9,46.9-19.4L96.1,96.2z"/>
	<radialGradient id="SVGID_3_" cx="25.1225" cy="104.5507" r="44.1826" gradientUnits="userSpaceOnUse">
		<stop  offset="0" style="stop-color:#999999"/>
		<stop  offset="1" style="stop-color:#FFFFFF;stop-opacity:0"/>
	</radialGradient>
	<path class="st3" d="M19.4,96.2c-4.7,4.7-4.7,12.4,0,17.2c4.2,4.2,8.9,7.8,13.9,10.6c3.3-0.9,6.3-2.6,8.8-5.1
		c3.8-3.8,5.8-8.8,5.8-14.1c0-0.2,0-0.3,0-0.5c-4.2-2-8-4.7-11.4-8.1C31.8,91.5,24.1,91.5,19.4,96.2z"/>
	<radialGradient id="SVGID_4_" cx="71.8903" cy="-6.4166" r="111.9869" gradientUnits="userSpaceOnUse">
		<stop  offset="0" style="stop-color:#4082F6"/>
		<stop  offset="1" style="stop-color:#6746F5"/>
	</radialGradient>
	<path class="st4" d="M36.6,96.2c-16.4-16.4-16.4-43.1,0-59.5c4.7-4.7,4.7-12.4,0-17.2c-4.7-4.7-12.4-4.7-17.2,0
		c-25.9,25.9-25.9,68,0,93.8c2.4,2.4,5.5,3.6,8.6,3.6s6.2-1.2,8.6-3.6C41.3,108.6,41.3,101,36.6,96.2z"/>
	<radialGradient id="SVGID_5_" cx="30.9047" cy="19.6033" r="94.1321" gradientUnits="userSpaceOnUse">
		<stop  offset="0" style="stop-color:#000072"/>
		<stop  offset="1" style="stop-color:#6746F5;stop-opacity:0"/>
	</radialGradient>
	<path class="st5" d="M36.6,96.2c-16.4-16.4-16.4-43.1,0-59.5c4.7-4.7,4.7-12.4,0-17.2c-4.7-4.7-12.4-4.7-17.2,0
		c-25.9,25.9-25.9,68,0,93.8c2.4,2.4,5.5,3.6,8.6,3.6s6.2-1.2,8.6-3.6C41.3,108.6,41.3,101,36.6,96.2z"/>
	<radialGradient id="SVGID_6_" cx="71.8903" cy="-6.4166" r="111.9869" gradientUnits="userSpaceOnUse">
		<stop  offset="0" style="stop-color:#4082F6"/>
		<stop  offset="1" style="stop-color:#6746F5"/>
	</radialGradient>
	<path class="st6" d="M19.4,19.5c-4.7,4.7-4.7,12.4,0,17.2c4.7,4.7,12.4,4.7,17.2,0c16.4-16.4,43.1-16.4,59.5,0l17.2-17.2
		C87.4-6.3,45.3-6.3,19.4,19.5z"/>
	<radialGradient id="SVGID_7_" cx="107.2638" cy="22.4944" r="143.5351" gradientUnits="userSpaceOnUse">
		<stop  offset="0" style="stop-color:#999999"/>
		<stop  offset="1" style="stop-color:#FFFFFF;stop-opacity:0"/>
	</radialGradient>
	<path class="st7" d="M126.5,96.4v36.4h24.4V83.2c0-13.9,6.7-20.9,20-20.9C170.9,62.2,126.5,60.7,126.5,96.4z"/>
	<radialGradient id="SVGID_8_" cx="284.2162" cy="85.6735" r="112.3474" gradientUnits="userSpaceOnUse">
		<stop  offset="0" style="stop-color:#999999"/>
		<stop  offset="1" style="stop-color:#FFFFFF;stop-opacity:0"/>
	</radialGradient>
	<path class="st8" d="M260.4,86.4c0,7.7-2.4,14-7.3,18.9c-4.9,4.9-11.1,7.3-18.5,7.3c-7.4,0-13.6-2.4-18.4-7.3
		c-4.8-4.9-7.2-11.2-7.2-18.9c0-7.7,2.4-14,7.2-18.9c4.8-4.9,11-7.3,18.4-7.3c7.4,0,13.6,2.4,18.5,7.3
		C258,72.4,260.4,78.7,260.4,86.4V50.9c-7.2-9-17.3-13.6-30.3-13.6c-12.4,0-23,4.7-31.9,14.2C189.4,61,185,72.6,185,86.4
		c0,13.8,4.4,25.4,13.3,34.8c8.9,9.5,19.5,14.2,31.9,14.2c13,0,23.1-4.5,30.3-13.6V86.4z"/>
	<radialGradient id="SVGID_9_" cx="289.3465" cy="41.7968" r="118.5829" gradientUnits="userSpaceOnUse">
		<stop  offset="0" style="stop-color:#999999"/>
		<stop  offset="1" style="stop-color:#FFFFFF;stop-opacity:0"/>
	</radialGradient>
	<path class="st9" d="M327.3,132.8V67.5c0,0-24,0.6-24,31v34.4H327.3z"/>
	<radialGradient id="SVGID_10_" cx="349.0676" cy="35.1643" r="114.9014" gradientUnits="userSpaceOnUse">
		<stop  offset="0" style="stop-color:#999999"/>
		<stop  offset="1" style="stop-color:#FFFFFF;stop-opacity:0"/>
	</radialGradient>
	<path class="st10" d="M372.7,128.2c6.8,5,18.4,6.5,34.9,4.6v-21.7c-4.6,0.3-8.4,0.3-11.5,0.1c-3.1-0.2-5.5-1-7.1-2.5
		c-1.6-1.5-2.4-3.8-2.4-7.1V67.5c0,0-24-2.3-24,21v13.1C362.6,114.4,366,123.2,372.7,128.2z"/>
</g>
</svg>
